#!OML:ASF H:\Pregnant\Project 1\Capture day 1\Session 1\femalepreg.ASF
:FULLY-SPECIFIED
:DEGREES
539
root 13.0004 15.7264 -25.0385 -335.202 44.2313 7.58006
lowerback -11.5513 -1.92683 4.75594
upperback -4.09383 -3.10119 3.87277
thorax 2.14728 -1.50698 0.949867
lowerneck -7.83299 -15.3476 -4.77794
upperneck 9.68152 -20.3893 2.80506
head 4.93515 -10.0096 0.13433
rclavicle 3.00165e-014 4.77083e-015
rhumerus -24.9573 15.2934 -87.3324
rradius 30.3961
rwrist -4.47328
rhand -18.3707 -19.7072
rfingers 7.12502
rthumb 7.91257 -49.5391
lclavicle 3.00165e-014 4.77083e-015
lhumerus -50.995 -9.13511 86.9998
lradius 68.777
lwrist 32.926
lhand -25.703 -15.7461
lfingers 7.12502
lthumb 0.832597 14.232
rfemur -40.1059 16.0005 20.5748
rtibia 47.5653
rfoot -20.0391 -11.0791
rtoes 0.579939
lfemur -39.9799 -0.491948 -20.8765
ltibia 67.1369
lfoot -1.33434 -6.21577
ltoes -28.7692
540
root 13.1092 15.7424 -24.9512 -335.236 43.2286 7.58648
lowerback -11.3289 -1.75517 4.93008
upperback -4.0525 -2.87957 3.80172
thorax 2.05959 -1.40044 0.813929
lowerneck -8.03692 -15.2864 -4.78621
upperneck 9.76897 -20.291 2.72051
head 4.98349 -9.96191 0.0997516
rclavicle -1.25234e-014 -2.06736e-014
rhumerus -24.7062 16.4278 -88.1591
rradius 32.1477
rwrist -5.58124
rhand -18.367 -19.5074
rfingers 7.12502
rthumb 7.91612 -49.3392
lclavicle -1.25234e-014 -2.06736e-014
lhumerus -51.0134 -8.59044 87.1228
lradius 65.4119
lwrist 35.0787
lhand -26.3341 -15.4076
lfingers 7.12502
lthumb 0.223071 14.572
rfemur -39.4299 16.4715 20.3289
rtibia 47.2222
rfoot -20.2862 -10.6966
rtoes 0.466257
lfemur -41.0217 -1.04785 -21.0582
ltibia 66.8594
lfoot -1.87371 -5.29063
ltoes -28.6821
541
root 13.2229 15.7589 -24.8679 -332.065 41.5593 7.18906
lowerback -14.4803 -1.13588 5.26572
upperback -4.98573 -2.25525 3.75669
thorax 2.78262 -1.07182 0.599281
lowerneck -7.85554 -15.2122 -4.80871
upperneck 9.73573 -20.1919 2.69882
head 4.94068 -9.91934 0.121574
rclavicle 6.7388e-014 6.52014e-014
rhumerus -24.7305 17.4943 -89.0466
rradius 33.9772
rwrist -6.76731
rhand -18.2754 -19.2628
rfingers 7.12502
rthumb 8.00454 -49.0912
lclavicle 6.7388e-014 6.52014e-014
lhumerus -51.1346 -8.15428 87.2008
lradius 61.931
lwrist 37.2028
lhand -26.8569 -14.979
lfingers 7.12502
lthumb -0.281906 15.0006
rfemur -43.2696 17.1923 18.8834
rtibia 47.1014
rfoot -20.0781 -9.68057
rtoes 0.318672
lfemur -46.3182 -1.17545 -21.1391
ltibia 66.9263
lfoot -2.09513 -4.18012
ltoes -28.8008
542
root 13.3345 15.8002 -24.7263 -333.253 40.8366 7.36656
lowerback -13.5135 -1.17936 4.95269
upperback -4.61892 -2.23177 3.68539
thorax 2.6597 -1.06528 0.719086
lowerneck -7.60867 -15.1381 -4.81306
upperneck 9.67379 -20.0987 2.69637
head 4.87888 -9.87948 0.15261
rclavicle 4.13472e-014 0
rhumerus -24.847 18.5026 -89.9252
rradius 35.8628
rwrist -7.99356
rhand -18.1862 -19.0063
rfingers 7.12502
rthumb 8.0906 -48.8314
lclavicle 4.13472e-014 0
lhumerus -51.2025 -7.81809 87.2467
lradius 58.3451
lwrist 39.1943
lhand -27.2798 -14.4486
lfingers 7.12502
lthumb -0.690335 15.53
rfemur -40.476 18.506 19.1344
rtibia 46.3555
rfoot -20.3215 -10.4182
rtoes 0.498922
lfemur -45.1588 -1.44278 -20.9831
ltibia 65.8503
lfoot -3.10039 -3.73983
ltoes -28.849
543
root 13.3345 15.8002 -24.7263 -333.253 40.8366 7.36656
lowerback -13.5135 -1.17936 4.95269
upperback -4.61892 -2.23177 3.68539
thorax 2.6597 -1.06528 0.719086
lowerneck -7.60867 -15.1381 -4.81306
upperneck 9.67379 -20.0987 2.69637
head 4.87888 -9.87948 0.15261
rclavicle 4.13472e-014 0
rhumerus -24.847 18.5026 -89.9252
rradius 35.8628
rwrist -7.99356
rhand -18.1862 -19.0063
rfingers 7.12502
rthumb 8.0906 -48.8314
lclavicle 4.13472e-014 0
lhumerus -51.2025 -7.81809 87.2467
lradius 58.3451
lwrist 39.1943
lhand -27.2798 -14.4486
lfingers 7.12502
lthumb -0.690335 15.53
rfemur -40.476 18.506 19.1344
rtibia 46.3555
rfoot -20.3215 -10.4182
rtoes 0.498922
lfemur -45.1588 -1.44278 -20.9831
ltibia 65.8503
lfoot -3.10039 -3.73983
ltoes -28.849
544
root 13.3345 15.8002 -24.7263 -333.253 40.8366 7.36656
lowerback -13.5135 -1.17936 4.95269
upperback -4.61892 -2.23177 3.68539
thorax 2.6597 -1.06528 0.719086
lowerneck -7.60867 -15.1381 -4.81306
upperneck 9.67379 -20.0987 2.69637
head 4.87888 -9.87948 0.15261
rclavicle 4.13472e-014 0
rhumerus -24.847 18.5026 -89.9252
rradius 35.8628
rwrist -7.99356
rhand -18.1862 -19.0063
rfingers 7.12502
rthumb 8.0906 -48.8314
lclavicle 4.13472e-014 0
lhumerus -51.2025 -7.81809 87.2467
lradius 58.3451
lwrist 39.1943
lhand -27.2798 -14.4486
lfingers 7.12502
lthumb -0.690335 15.53
rfemur -40.476 18.506 19.1344
rtibia 46.3555
rfoot -20.3215 -10.4182
rtoes 0.498922
lfemur -45.1588 -1.44278 -20.9831
ltibia 65.8503
lfoot -3.10039 -3.73983
ltoes -28.849
545
root 13.3345 15.8002 -24.7263 -333.253 40.8366 7.36656
lowerback -13.5135 -1.17936 4.95269
upperback -4.61892 -2.23177 3.68539
thorax 2.6597 -1.06528 0.719086
lowerneck -7.60867 -15.1381 -4.81306
upperneck 9.67379 -20.0987 2.69637
head 4.87888 -9.87948 0.15261
rclavicle 4.13472e-014 0
rhumerus -24.847 18.5026 -89.9252
rradius 35.8628
rwrist -7.99356
rhand -18.1862 -19.0063
rfingers 7.12502
rthumb 8.0906 -48.8314
lclavicle 4.13472e-014 0
lhumerus -51.2025 -7.81809 87.2467
lradius 58.3451
lwrist 39.1943
lhand -27.2798 -14.4486
lfingers 7.12502
lthumb -0.690335 15.53
rfemur -40.476 18.506 19.1344
rtibia 46.3555
rfoot -20.3215 -10.4182
rtoes 0.498922
lfemur -45.1588 -1.44278 -20.9831
ltibia 65.8503
lfoot -3.10039 -3.73983
ltoes -28.849
546
root 13.3345 15.8002 -24.7263 -333.253 40.8366 7.36656
lowerback -13.5135 -1.17936 4.95269
upperback -4.61892 -2.23177 3.68539
thorax 2.6597 -1.06528 0.719086
lowerneck -7.60867 -15.1381 -4.81306
upperneck 9.67379 -20.0987 2.69637
head 4.87888 -9.87948 0.15261
rclavicle 4.13472e-014 0
rhumerus -24.847 18.5026 -89.9252
rradius 35.8628
rwrist -7.99356
rhand -18.1862 -19.0063
rfingers 7.12502
rthumb 8.0906 -48.8314
lclavicle 4.13472e-014 0
lhumerus -51.2025 -7.81809 87.2467
lradius 58.3451
lwrist 39.1943
lhand -27.2798 -14.4486
lfingers 7.12502
lthumb -0.690335 15.53
rfemur -40.476 18.506 19.1344
rtibia 46.3555
rfoot -20.3215 -10.4182
rtoes 0.498922
lfemur -45.1588 -1.44278 -20.9831
ltibia 65.8503
lfoot -3.10039 -3.73983
ltoes -28.849
547
root 13.3345 15.8002 -24.7263 -333.253 40.8366 7.36656
lowerback -13.5135 -1.17936 4.95269
upperback -4.61892 -2.23177 3.68539
thorax 2.6597 -1.06528 0.719086
lowerneck -7.60867 -15.1381 -4.81306
upperneck 9.67379 -20.0987 2.69637
head 4.87888 -9.87948 0.15261
rclavicle 4.13472e-014 0
rhumerus -24.847 18.5026 -89.9252
rradius 35.8628
rwrist -7.99356
rhand -18.1862 -19.0063
rfingers 7.12502
rthumb 8.0906 -48.8314
lclavicle 4.13472e-014 0
lhumerus -51.2025 -7.81809 87.2467
lradius 58.3451
lwrist 39.1943
lhand -27.2798 -14.4486
lfingers 7.12502
lthumb -0.690335 15.53
rfemur -40.476 18.506 19.1344
rtibia 46.3555
rfoot -20.3215 -10.4182
rtoes 0.498922
lfemur -45.1588 -1.44278 -20.9831
ltibia 65.8503
lfoot -3.10039 -3.73983
ltoes -28.849
548
root 13.3345 15.8002 -24.7263 -333.253 40.8366 7.36656
lowerback -13.5135 -1.17936 4.95269
upperback -4.61892 -2.23177 3.68539
thorax 2.6597 -1.06528 0.719086
lowerneck -7.60867 -15.1381 -4.81306
upperneck 9.67379 -20.0987 2.69637
head 4.87888 -9.87948 0.15261
rclavicle 4.13472e-014 0
rhumerus -24.847 18.5026 -89.9252
rradius 35.8628
rwrist -7.99356
rhand -18.1862 -19.0063
rfingers 7.12502
rthumb 8.0906 -48.8314
lclavicle 4.13472e-014 0
lhumerus -51.2025 -7.81809 87.2467
lradius 58.3451
lwrist 39.1943
lhand -27.2798 -14.4486
lfingers 7.12502
lthumb -0.690335 15.53
rfemur -40.476 18.506 19.1344
rtibia 46.3555
rfoot -20.3215 -10.4182
rtoes 0.498922
lfemur -45.1588 -1.44278 -20.9831
ltibia 65.8503
lfoot -3.10039 -3.73983
ltoes -28.849
549
root 13.3345 15.8002 -24.7263 -333.253 40.8366 7.36656
lowerback -13.5135 -1.17936 4.95269
upperback -4.61892 -2.23177 3.68539
thorax 2.6597 -1.06528 0.719086
lowerneck -7.60867 -15.1381 -4.81306
upperneck 9.67379 -20.0987 2.69637
head 4.87888 -9.87948 0.15261
rclavicle 4.13472e-014 0
rhumerus -24.847 18.5026 -89.9252
rradius 35.8628
rwrist -7.99356
rhand -18.1862 -19.0063
rfingers 7.12502
rthumb 8.0906 -48.8314
lclavicle 4.13472e-014 0
lhumerus -51.2025 -7.81809 87.2467
lradius 58.3451
lwrist 39.1943
lhand -27.2798 -14.4486
lfingers 7.12502
lthumb -0.690335 15.53
rfemur -40.476 18.506 19.1344
rtibia 46.3555
rfoot -20.3215 -10.4182
rtoes 0.498922
lfemur -45.1588 -1.44278 -20.9831
ltibia 65.8503
lfoot -3.10039 -3.73983
ltoes -28.849
550
root 13.3345 15.8002 -24.7263 -333.253 40.8366 7.36656
lowerback -13.5135 -1.17936 4.95269
upperback -4.61892 -2.23177 3.68539
thorax 2.6597 -1.06528 0.719086
lowerneck -7.60867 -15.1381 -4.81306
upperneck 9.67379 -20.0987 2.69637
head 4.87888 -9.87948 0.15261
rclavicle 4.13472e-014 0
rhumerus -24.847 18.5026 -89.9252
rradius 35.8628
rwrist -7.99356
rhand -18.1862 -19.0063
rfingers 7.12502
rthumb 8.0906 -48.8314
lclavicle 4.13472e-014 0
lhumerus -51.2025 -7.81809 87.2467
lradius 58.3451
lwrist 39.1943
lhand -27.2798 -14.4486
lfingers 7.12502
lthumb -0.690335 15.53
rfemur -40.476 18.506 19.1344
rtibia 46.3555
rfoot -20.3215 -10.4182
rtoes 0.498922
lfemur -45.1588 -1.44278 -20.9831
ltibia 65.8503
lfoot -3.10039 -3.73983
ltoes -28.849
551
root 13.3345 15.8002 -24.7263 -333.253 40.8366 7.36656
lowerback -13.5135 -1.17936 4.95269
upperback -4.61892 -2.23177 3.68539
thorax 2.6597 -1.06528 0.719086
lowerneck -7.60867 -15.1381 -4.81306
upperneck 9.67379 -20.0987 2.69637
head 4.87888 -9.87948 0.15261
rclavicle 4.13472e-014 0
rhumerus -24.847 18.5026 -89.9252
rradius 35.8628
rwrist -7.99356
rhand -18.1862 -19.0063
rfingers 7.12502
rthumb 8.0906 -48.8314
lclavicle 4.13472e-014 0
lhumerus -51.2025 -7.81809 87.2467
lradius 58.3451
lwrist 39.1943
lhand -27.2798 -14.4486
lfingers 7.12502
lthumb -0.690335 15.53
rfemur -40.476 18.506 19.1344
rtibia 46.3555
rfoot -20.3215 -10.4182
rtoes 0.498922
lfemur -45.1588 -1.44278 -20.9831
ltibia 65.8503
lfoot -3.10039 -3.73983
ltoes -28.849
